<svg version="1.1" id="Layer_1" xmlns="http://www.w3.org/2000/svg" xmlns:xlink="http://www.w3.org/1999/xlink" x="0px" y="0px"
	 width="100%" viewBox="0 0 196 292" enable-background="new 0 0 196 292" xml:space="preserve">
<path fill="#097C2F" opacity="1.000000" stroke="none" 
	d="
M32.979500,158.990570 
	C37.475700,156.193863 40.825539,151.531174 46.977924,151.364319 
	C48.625885,151.319626 50.099804,148.571716 51.834007,147.313400 
	C57.589363,143.137421 63.426929,139.074753 69.787308,135.213409 
	C72.235191,137.697693 77.232590,136.200333 76.599274,140.996552 
	C72.145454,140.706207 71.734482,143.207977 71.997528,146.519318 
	C71.450294,146.861908 71.014374,146.998596 70.260208,147.184662 
	C69.639603,147.521072 69.337234,147.808121 69.029747,148.054871 
	C69.024620,148.014587 69.090340,148.062332 68.634026,148.043518 
	C58.911873,147.951874 58.911873,147.951874 58.932976,156.453278 
	C57.867058,158.167328 56.923168,159.581482 55.730186,160.900269 
	C54.656006,160.870667 53.830910,160.936432 52.916374,160.833130 
	C52.557487,160.780182 52.288040,160.896317 52.009308,161.007690 
	C52.000023,161.002930 52.011806,161.022217 51.618805,161.017395 
	C46.402988,162.295242 41.580173,163.577896 37.586823,164.639954 
	C35.712460,162.341660 34.345978,160.666107 32.979500,158.990570 
z"/>
<path fill="#4F3821" opacity="1.000000" stroke="none" 
	d="
M99.934799,269.410278 
	C91.935188,269.661652 83.935585,269.913025 75.342583,269.800964 
	C74.848488,267.906586 74.947784,266.375671 75.047081,264.844727 
	C79.260323,264.782715 81.562820,263.043640 81.730133,258.440674 
	C82.350410,241.375900 83.196411,224.319397 83.910591,207.257812 
	C83.943497,206.471634 83.521584,205.666428 83.283325,204.187347 
	C84.178001,202.006744 85.100838,200.508881 86.176102,199.002777 
	C86.328529,198.994537 86.632515,198.965012 86.720657,199.353928 
	C87.905785,202.418228 89.002769,205.093597 89.927292,208.066498 
	C89.518021,209.599930 88.944748,210.882492 89.108467,212.062851 
	C89.571419,215.400589 90.336395,218.696411 90.610138,222.081482 
	C89.802498,223.804001 89.367104,225.453796 88.697052,226.912415 
	C87.997719,227.124527 87.148323,227.507263 87.125450,227.934235 
	C86.714546,235.606827 86.403564,243.284775 85.826897,251.153885 
	C86.371704,253.371490 87.160789,255.396790 88.100891,257.809692 
	C89.117630,257.856140 90.542892,257.921204 91.977921,258.444122 
	C91.987686,261.791962 91.987686,264.681976 91.987686,267.009827 
	C95.231003,267.989471 97.582901,268.699860 99.934799,269.410278 
z"/>
<path fill="#066C28" opacity="1.000000" stroke="none" 
	d="
M53.005814,161.002197 
	C53.830910,160.936432 54.656006,160.870667 55.986916,161.114532 
	C58.436943,163.902405 60.381165,166.380630 61.943829,168.925385 
	C60.887146,169.405701 60.043739,169.679459 59.564068,170.255875 
	C56.332859,174.138763 53.178791,178.085846 49.681297,182.151108 
	C44.578346,184.188919 39.793842,186.087769 35.005314,187.596252 
	C37.111614,183.622345 39.221939,180.038818 41.526058,176.126205 
	C40.292774,175.526047 38.737732,174.769333 37.182686,174.012604 
	C35.028408,173.754272 32.874126,173.495941 30.631311,172.794540 
	C31.697683,171.237885 32.852589,170.124298 34.428841,169.008575 
	C38.079941,168.361923 41.284359,167.449524 44.545891,167.141129 
	C48.566216,166.760971 50.802059,164.621155 52.011806,161.022217 
	C52.011806,161.022217 52.000023,161.002930 52.256096,161.009140 
	C52.512169,161.015350 53.005814,161.002182 53.005814,161.002197 
z"/>
<path fill="#056525" opacity="1.000000" stroke="none" 
	d="
M51.977715,197.062836 
	C45.624687,198.045944 39.271660,199.029068 32.456638,199.576553 
	C32.336361,196.441559 32.678078,193.742188 33.468353,191.032623 
	C43.353539,191.059784 52.100174,189.438660 58.004433,180.998779 
	C57.998932,180.998779 57.998627,181.009903 58.216347,180.897278 
	C58.706440,180.583054 58.894058,180.320801 59.332382,179.852783 
	C63.764133,180.146896 67.860420,180.586121 71.936447,181.365891 
	C71.275116,183.129471 70.634041,184.552521 69.648674,186.014755 
	C67.892181,187.178101 66.577728,188.462280 65.049187,189.395981 
	C60.739105,192.028671 56.341072,194.517365 51.977715,197.062836 
z"/>
<path fill="#086D27" opacity="1.000000" stroke="none" 
	d="
M86.023682,199.011017 
	C85.100838,200.508881 84.178001,202.006744 83.112350,203.809479 
	C76.537399,210.245300 69.277054,214.188599 60.417858,213.286743 
	C62.014797,211.023270 63.519238,208.890915 65.383636,206.341095 
	C70.043671,203.871597 69.815979,201.125961 67.115578,197.682312 
	C69.181061,194.923386 71.091751,192.459946 73.287300,189.863068 
	C74.714409,188.816528 75.856667,187.903427 77.151665,187.300598 
	C80.210831,191.410904 83.117256,195.210953 86.023682,199.011017 
z"/>
<path fill="#0F902E" opacity="1.000000" stroke="none" 
	d="
M62.846806,91.514687 
	C71.053925,85.056480 78.101387,77.656700 82.756104,67.908722 
	C78.196671,67.290161 74.264023,66.756630 70.331375,66.223106 
	C77.164513,60.911396 81.296692,54.523712 84.919815,47.108891 
	C86.024071,46.978683 86.473267,46.987049 86.891342,47.357796 
	C86.139755,49.775593 85.419273,51.831005 84.520821,54.001099 
	C84.135101,54.320526 84.002060,54.565800 83.659058,55.042221 
	C81.619728,57.557911 79.865074,59.882984 78.110420,62.208054 
	C78.428551,62.652664 78.746674,63.097271 79.064804,63.541882 
	C81.719444,62.377216 84.374077,61.212555 87.380844,60.029808 
	C88.769478,59.913280 89.805984,59.814838 91.358269,59.667408 
	C90.555214,61.854664 90.084419,63.579372 89.310585,65.155281 
	C87.532280,68.776772 85.606415,72.325798 83.431747,75.991150 
	C81.077011,78.712357 79.030952,81.346657 76.687424,84.129700 
	C73.596413,86.856346 70.802879,89.434258 67.792618,92.293716 
	C65.712868,93.500008 63.602253,95.528664 62.846806,91.514687 
z"/>
<path fill="#06792A" opacity="1.000000" stroke="none" 
	d="
M61.921837,113.973900 
	C64.329422,110.764404 66.737007,107.554909 69.784622,104.130615 
	C71.921402,103.200172 74.785782,102.116982 74.707237,101.824699 
	C73.725090,98.170227 72.316483,94.630371 71.300339,90.912796 
	C72.376427,90.499458 73.169441,90.234444 74.242325,90.169731 
	C78.030548,92.593941 81.538895,94.817848 85.001724,97.389450 
	C83.638084,100.158844 82.319954,102.580521 80.734421,105.190399 
	C78.647141,107.584877 76.827278,109.791168 74.763229,112.185913 
	C73.583336,114.703461 79.246773,116.600304 74.962776,119.148735 
	C74.962776,119.148735 74.839958,119.248703 74.347809,119.173553 
	C70.104080,120.349907 67.456421,118.616211 65.013809,116.000305 
	C64.196800,115.125336 62.964375,114.638275 61.921837,113.973900 
z"/>
<path fill="#7F4F1F" opacity="1.000000" stroke="none" 
	d="
M123.991257,270.870483 
	C116.958183,270.492096 109.925102,270.113708 102.417519,269.306519 
	C101.631256,267.914001 101.319504,266.950256 101.400322,265.923340 
	C102.420113,262.842224 103.047318,259.824249 103.728806,256.545044 
	C104.207054,257.088989 104.606895,257.543762 105.003250,258.414703 
	C105.380226,260.825928 105.760696,262.820984 106.141167,264.816071 
	C106.651512,264.703949 107.161865,264.591858 107.672218,264.479767 
	C107.407356,262.002899 107.142502,259.526062 106.904892,256.705688 
	C106.918961,255.903214 106.905792,255.444229 106.891464,254.640869 
	C106.563553,253.204132 106.236801,252.111755 105.933090,250.676971 
	C105.948967,249.877213 105.941818,249.419876 105.955109,248.518082 
	C105.932915,245.404831 105.890282,242.736008 106.124306,240.048187 
	C106.585518,240.018326 106.770073,240.007462 106.954620,239.996613 
	C107.441353,241.339462 108.197586,242.649078 108.368027,244.030930 
	C109.094269,249.919067 109.554329,255.841370 110.365135,261.716217 
	C110.484543,262.581421 111.850296,263.625549 112.844406,263.941162 
	C114.563927,264.487061 116.444054,264.527039 118.663780,265.251709 
	C120.710922,267.439606 122.351089,269.155029 123.991257,270.870483 
z"/>
<path fill="#0D832E" opacity="1.000000" stroke="none" 
	d="
M71.017265,91.061111 
	C72.316483,94.630371 73.725090,98.170227 74.707237,101.824699 
	C74.785782,102.116982 71.921402,103.200172 69.980164,103.870979 
	C68.240715,103.298233 66.953148,102.340599 65.649483,102.318153 
	C60.496689,102.229393 56.360161,100.198708 52.636906,96.339714 
	C55.953465,94.748375 59.049744,93.262741 62.496414,91.645889 
	C63.602253,95.528664 65.712868,93.500008 68.108566,92.257523 
	C69.433235,91.646881 70.225250,91.353996 71.017265,91.061111 
z"/>
<path fill="#098636" opacity="1.000000" stroke="none" 
	d="
M73.002449,189.996521 
	C71.091751,192.459946 69.181061,194.923386 66.767517,197.729401 
	C60.416107,202.005936 54.133709,204.727386 46.966854,204.976944 
	C48.749142,202.515671 50.531429,200.054398 52.145714,197.327972 
	C56.341072,194.517365 60.739105,192.028671 65.049187,189.395981 
	C66.577728,188.462280 67.892181,187.178101 69.681854,186.348419 
	C71.040367,187.760788 72.021408,188.878647 73.002449,189.996521 
z"/>
<path fill="#6A421A" opacity="1.000000" stroke="none" 
	d="
M101.007744,265.986511 
	C101.319504,266.950256 101.631256,267.914001 101.964233,269.185486 
	C101.521652,269.553253 101.057838,269.613281 100.264412,269.541809 
	C97.582901,268.699860 95.231003,267.989471 91.987686,267.009827 
	C91.987686,264.681976 91.987686,261.791962 91.986824,257.981079 
	C91.998840,252.709259 92.011711,248.358276 92.448120,244.004608 
	C94.567543,243.999969 96.263428,243.998001 97.990219,244.329651 
	C98.012474,245.109573 98.003830,245.555893 97.724075,246.235123 
	C97.668350,248.001755 97.883743,249.535477 98.180511,251.458649 
	C99.177185,256.560913 100.092461,261.273712 101.007744,265.986511 
z"/>
<path fill="#2F9320" opacity="1.000000" stroke="none" 
	d="
M109.706261,117.180984 
	C108.366119,117.063492 107.025978,116.945999 105.177094,116.316360 
	C102.007057,115.366714 99.345764,114.929230 97.046227,114.551216 
	C95.943901,112.548950 94.969872,110.779739 94.001213,108.646187 
	C95.680618,105.829170 97.354652,103.376488 99.311218,101.081436 
	C101.037407,102.508942 102.481049,103.778801 104.107704,105.332840 
	C107.183075,107.439804 110.075432,109.262581 112.756790,111.336090 
	C109.075523,112.170517 109.614998,114.789505 109.706261,117.180984 
z"/>
<path fill="#99D636" opacity="1.000000" stroke="none" 
	d="
M110.982780,57.041054 
	C112.257561,58.530758 114.138367,59.845226 114.634239,61.560146 
	C115.116318,63.227367 114.178772,65.305061 113.864594,67.202515 
	C112.476875,66.925819 111.089157,66.649117 109.391037,65.801476 
	C108.740067,58.920040 103.700714,60.443310 99.951103,59.449093 
	C99.608696,58.074768 99.293556,57.022236 98.973709,55.668617 
	C98.963768,54.966183 98.958542,54.564827 98.875679,53.911926 
	C98.534210,53.440571 98.270370,53.220768 97.870110,52.732780 
	C97.223892,51.618340 96.714096,50.772083 96.163605,49.535107 
	C96.106339,48.094204 96.089775,47.044018 96.381805,45.858120 
	C97.375694,45.812492 98.646851,45.849556 98.660515,46.000435 
	C98.993553,49.679855 101.722672,48.943386 104.191544,49.296253 
	C106.570572,52.072048 108.776680,54.556553 110.982780,57.041054 
z"/>
<path fill="#0D832E" opacity="1.000000" stroke="none" 
	d="
M77.005356,140.993134 
	C77.232590,136.200333 72.235191,137.697693 70.141495,135.160202 
	C74.336945,133.187012 78.732544,131.511810 83.728676,130.119659 
	C89.107704,131.924606 89.264259,136.183563 90.040970,140.261887 
	C90.028954,140.455612 90.036850,140.845261 89.653488,140.940720 
	C86.970589,141.397919 84.671043,141.759644 81.970520,142.093704 
	C80.048141,141.708405 78.526749,141.350769 77.005356,140.993134 
z"/>
<path fill="#7E4C20" opacity="1.000000" stroke="none" 
	d="
M67.016647,270.653015 
	C55.744774,271.739807 44.472897,272.826599 33.201023,273.913361 
	C33.113846,273.124237 33.026672,272.335083 32.939499,271.545929 
	C45.672451,269.334930 58.405403,267.123932 71.676628,265.252930 
	C71.333206,266.703674 70.533470,267.895477 69.542168,268.897797 
	C68.833382,269.614471 67.867691,270.077057 67.016647,270.653015 
z"/>
<path fill="#6ABD0D" opacity="1.000000" stroke="none" 
	d="
M147.073761,127.830734 
	C150.830887,129.498962 154.588013,131.167206 158.669769,133.347015 
	C158.152573,135.586075 157.167068,137.261780 156.519485,139.059219 
	C156.089020,140.254105 156.141342,141.622940 155.977554,142.913910 
	C153.957428,144.220886 152.330002,144.286438 150.535049,142.188538 
	C147.968170,139.188431 145.001709,136.530197 142.267456,133.132492 
	C143.910614,130.969589 145.492188,129.400162 147.073761,127.830734 
z"/>
<path fill="#078A33" opacity="1.000000" stroke="none" 
	d="
M51.618805,161.017395 
	C50.802059,164.621155 48.566216,166.760971 44.545891,167.141129 
	C41.284359,167.449524 38.079941,168.361923 33.998535,169.004089 
	C30.534634,168.695465 27.922390,168.389221 25.481876,168.103104 
	C25.671814,165.318726 25.793303,163.537750 25.914793,161.756775 
	C28.034269,160.863251 30.153744,159.969742 32.626358,159.033401 
	C34.345978,160.666107 35.712460,162.341660 37.586823,164.639954 
	C41.580173,163.577896 46.402988,162.295242 51.618805,161.017395 
z"/>
<path fill="#117828" opacity="1.000000" stroke="none" 
	d="
M93.995850,109.010529 
	C94.969872,110.779739 95.943901,112.548950 97.046227,114.551216 
	C99.345764,114.929230 102.007057,115.366714 104.811752,116.141800 
	C95.234337,117.363914 85.513527,118.248421 75.377747,119.140831 
	C79.246773,116.600304 73.583336,114.703461 75.161041,112.184357 
	C78.202507,111.337311 80.601974,110.680260 83.441879,110.015968 
	C87.253502,109.675995 90.624672,109.343262 93.995850,109.010529 
z"/>
<path fill="#50AB1E" opacity="1.000000" stroke="none" 
	d="
M115.021164,98.046989 
	C115.343056,98.808601 115.664955,99.570213 115.706001,100.656967 
	C112.933739,102.003944 110.442329,103.025780 107.629608,104.023300 
	C106.879562,103.958664 106.450836,103.918350 105.860893,103.592392 
	C103.458107,101.885551 101.216530,100.464371 98.979782,99.030533 
	C98.984612,99.017876 98.960152,99.006248 98.962997,98.705688 
	C98.636436,97.948029 98.307037,97.490929 97.982094,97.019768 
	C97.986542,97.005707 97.957214,97.009270 97.986389,96.750336 
	C98.032326,96.318451 98.049080,96.145515 98.394615,95.826569 
	C102.135185,93.174026 105.546974,90.667503 109.209396,88.113892 
	C109.629288,88.050652 109.798538,88.034492 110.060509,88.260773 
	C110.457298,88.922722 110.761375,89.342232 111.184952,90.059341 
	C111.884689,90.556099 112.464912,90.755272 113.026291,90.978577 
	C113.007431,91.002701 113.032013,90.949310 113.128754,91.178513 
	C113.425835,91.695030 113.697906,91.872246 114.056259,91.949509 
	C114.070801,91.959679 114.088448,91.928802 114.058678,92.328903 
	C114.359657,94.501663 114.690407,96.274330 115.021164,98.046989 
z"/>
<path fill="#15781E" opacity="1.000000" stroke="none" 
	d="
M128.852798,206.143311 
	C127.598282,206.143311 126.343765,206.143311 124.131035,206.143311 
	C126.392593,208.872879 128.161789,211.008179 130.478821,213.804703 
	C122.189766,213.965134 115.696907,211.220215 110.310837,205.599930 
	C113.413399,206.237854 115.610023,206.156021 116.436676,202.426025 
	C116.719467,201.150055 118.129509,200.123917 119.280510,199.093475 
	C120.021851,199.476807 120.507210,199.750275 121.151001,200.325287 
	C123.823891,202.465652 126.338348,204.304474 128.852798,206.143311 
z"/>
<path fill="#774A19" opacity="1.000000" stroke="none" 
	d="
M107.020424,239.532166 
	C106.770073,240.007462 106.585518,240.018326 105.866318,239.732086 
	C104.631691,231.973114 103.931702,224.511246 103.231712,217.049377 
	C102.881195,217.082474 102.530685,217.115585 102.180176,217.148682 
	C102.102646,218.444305 102.025116,219.739944 101.688309,221.262573 
	C99.953094,223.326584 98.477158,225.163605 97.000732,226.574402 
	C98.295883,220.307770 99.591522,214.467346 100.939880,208.430313 
	C101.170982,207.994171 101.409035,207.886032 102.070091,207.979385 
	C103.950630,210.030807 105.467827,212.012131 106.985016,213.993469 
	C107.018753,222.351562 107.052490,230.709641 107.020424,239.532166 
z"/>
<path fill="#106A2B" opacity="1.000000" stroke="none" 
	d="
M46.603291,204.955063 
	C54.133709,204.727386 60.416107,202.005936 66.612717,198.024902 
	C69.815979,201.125961 70.043671,203.871597 65.386459,205.961761 
	C57.400642,208.199890 49.747246,209.989014 40.807583,207.257568 
	C43.146290,206.256851 44.693012,205.595016 46.603291,204.955063 
z"/>
<path fill="#5DB111" opacity="1.000000" stroke="none" 
	d="
M147.022980,127.512123 
	C145.492188,129.400162 143.910614,130.969589 142.136261,132.826736 
	C137.440948,130.261826 132.938416,127.409210 128.254669,123.922653 
	C129.052170,120.836021 130.030914,118.383316 131.009659,115.930603 
	C131.966553,116.591545 132.923447,117.252495 134.015320,118.526917 
	C136.615158,122.443787 138.410400,126.866150 143.961761,125.011734 
	C144.965240,125.738998 145.968719,126.466255 147.022980,127.512123 
z"/>
<path fill="#8E5216" opacity="1.000000" stroke="none" 
	d="
M124.444084,270.936279 
	C122.351089,269.155029 120.710922,267.439606 119.030380,265.374573 
	C123.193535,265.679779 127.401848,266.305450 131.599457,266.996216 
	C137.733124,268.005615 143.859085,269.061676 149.988342,270.097870 
	C150.072281,270.543365 150.156235,270.988892 150.240173,271.434418 
	C149.181259,271.817474 148.101120,272.580505 147.066833,272.522705 
	C139.671616,272.109558 132.285751,271.529205 124.444084,270.936279 
z"/>
<path fill="#3FA22A" opacity="1.000000" stroke="none" 
	d="
M97.992058,129.052933 
	C103.176819,129.200317 108.640701,128.003220 112.939438,132.905731 
	C111.973503,134.164993 110.804054,134.485901 110.205399,135.252518 
	C109.287903,136.427444 108.546860,137.861191 108.228195,139.295578 
	C108.150833,139.643799 110.014091,140.423157 110.987846,141.319931 
	C110.996574,142.056549 111.002472,142.477524 110.622955,142.894806 
	C107.159363,142.170609 104.081184,141.450073 101.173630,140.439240 
	C103.242973,137.075699 102.804398,134.538086 99.880150,132.260025 
	C98.970215,131.551147 98.606071,130.141678 97.992058,129.052933 
z"/>
<path fill="#62BA20" opacity="1.000000" stroke="none" 
	d="
M107.950920,104.047623 
	C110.442329,103.025780 112.933739,102.003944 115.815773,100.959610 
	C120.429634,105.257912 124.652863,109.578712 128.839050,114.513222 
	C126.198959,114.737160 123.595924,114.347374 120.988243,113.592651 
	C119.805191,112.069618 118.770706,110.694824 117.419250,109.797302 
	C114.345840,107.756210 111.116745,105.949562 107.950920,104.047623 
z"/>
<path fill="#8FD131" opacity="1.000000" stroke="none" 
	d="
M111.065445,89.761749 
	C110.761375,89.342232 110.457298,88.922722 110.318939,88.043289 
	C110.659302,85.048798 110.833961,82.514229 111.306244,80.131439 
	C114.994690,83.277191 118.322121,86.348930 121.825287,89.205124 
	C122.605865,89.841537 124.004478,89.719910 125.118546,89.947296 
	C125.456078,89.962982 125.726738,90.105583 125.997513,90.964874 
	C126.612160,92.813858 127.159828,94.073051 128.050186,96.120216 
	C124.564941,95.253830 121.809906,94.568962 118.826187,93.633377 
	C117.094490,92.898041 115.591469,92.413422 114.088448,91.928802 
	C114.088448,91.928802 114.070801,91.959679 113.976364,91.710800 
	C113.598618,91.291054 113.315315,91.120186 113.032013,90.949310 
	C113.032013,90.949310 113.007431,91.002701 112.857361,90.731766 
	C112.160011,90.227814 111.612724,89.994781 111.065445,89.761749 
z"/>
<path fill="#09722B" opacity="1.000000" stroke="none" 
	d="
M33.019798,191.042816 
	C32.678078,193.742188 32.336361,196.441559 31.992802,199.556427 
	C27.193115,198.722809 22.395267,197.473679 17.570557,195.742035 
	C20.173077,193.459122 21.785063,189.643982 26.440273,190.992157 
	C28.925394,191.011765 30.972595,191.027283 33.019798,191.042816 
z"/>
<path fill="#9BD83C" opacity="1.000000" stroke="none" 
	d="
M104.018616,49.004963 
	C101.722672,48.943386 98.993553,49.679855 98.660515,46.000435 
	C98.646851,45.849556 97.375694,45.812492 96.317993,45.545372 
	C95.638924,44.578773 95.332253,43.789200 95.025055,42.530998 
	C95.024529,34.785095 95.024529,27.507826 95.024529,20.315830 
	C96.082176,21.671503 96.975922,22.817085 97.869667,23.962667 
	C97.937424,24.671062 98.005180,25.379456 97.826355,26.654381 
	C99.726044,34.482262 101.872330,41.743614 104.018616,49.004963 
z"/>
<path fill="#097C2F" opacity="1.000000" stroke="none" 
	d="
M37.203270,174.385223 
	C38.737732,174.769333 40.292774,175.526047 41.526058,176.126205 
	C39.221939,180.038818 37.111614,183.622345 34.620193,187.646896 
	C31.492352,188.725693 28.745604,189.363449 25.735199,189.794907 
	C24.956882,188.338898 24.442225,187.089188 23.927567,185.839493 
	C27.331163,183.559906 30.838530,181.416214 34.088154,178.934967 
	C35.420040,177.918015 36.195358,176.172134 37.203270,174.385223 
z"/>
<path fill="#57B824" opacity="1.000000" stroke="none" 
	d="
M97.985107,23.561398 
	C96.975922,22.817085 96.082176,21.671503 95.024529,20.315830 
	C95.024529,27.507826 95.024529,34.785095 94.595047,42.530830 
	C92.452446,42.998104 90.739334,42.996918 89.069901,42.616425 
	C90.059044,37.793961 91.004517,33.350803 91.949997,28.907650 
	C92.738815,23.227272 93.527634,17.546894 94.316452,11.866515 
	C94.732559,11.795523 95.148659,11.724530 95.564766,11.653538 
	C96.410027,15.489067 97.255280,19.324596 97.985107,23.561398 
z"/>
<path fill="#097C2F" opacity="1.000000" stroke="none" 
	d="
M31.911703,132.802704 
	C33.205322,132.466492 34.498940,132.130280 36.513268,131.935516 
	C40.158745,133.377670 43.083515,134.678375 46.001915,136.232697 
	C45.992477,136.655472 45.989414,136.824600 45.986351,136.993713 
	C43.453026,139.347687 40.919704,141.701675 37.968845,144.443634 
	C36.062962,143.270523 34.014870,142.009857 32.155106,140.371094 
	C36.244465,137.353333 32.249359,135.187820 31.911703,132.802704 
z"/>
<path fill="#4CAB1D" opacity="1.000000" stroke="none" 
	d="
M99.978371,59.770885 
	C103.700714,60.443310 108.740067,58.920040 109.092659,65.627609 
	C110.387924,69.430534 111.671173,72.836372 112.743782,76.626434 
	C112.016159,77.360596 111.499176,77.710533 110.683464,77.898582 
	C105.941811,72.312332 101.043770,67.151604 99.978371,59.770885 
z"/>
<path fill="#409D1A" opacity="1.000000" stroke="none" 
	d="
M136.059937,196.875366 
	C140.591507,200.264862 145.123077,203.654343 149.768280,207.128845 
	C145.651352,208.029907 141.279663,209.851288 136.200745,206.810608 
	C134.479691,204.922211 133.237350,203.462265 132.348511,201.965210 
	C133.821335,200.243851 134.940628,198.559601 136.059937,196.875366 
z"/>
<path fill="#8BD319" opacity="1.000000" stroke="none" 
	d="
M158.091278,179.778046 
	C163.824081,182.840683 169.556885,185.903336 175.576935,189.409180 
	C174.560760,190.252441 173.257309,190.652512 171.614578,191.047821 
	C170.823532,191.063538 170.371780,191.084030 169.542862,191.059662 
	C166.783569,190.379852 164.401443,189.744919 162.009399,188.721985 
	C160.846252,186.593002 159.693008,184.852051 158.539764,183.111099 
	C157.685577,184.098892 156.831390,185.086700 155.643326,186.033676 
	C153.858963,184.715652 152.408493,183.438431 151.113571,181.830612 
	C153.543182,180.926010 155.817230,180.352020 158.091278,179.778046 
z"/>
<path fill="#2E901A" opacity="1.000000" stroke="none" 
	d="
M162.052399,200.059204 
	C154.491364,200.562363 147.008972,200.559402 140.303802,196.341156 
	C142.981903,195.337311 146.541489,198.807190 148.361145,194.098785 
	C149.402115,193.748734 150.120178,193.417023 151.230957,193.097488 
	C153.430740,193.420471 155.237793,193.731262 157.094421,194.400040 
	C158.434418,195.171890 159.724869,195.585754 161.021088,196.355377 
	C161.368713,197.827148 161.710556,198.943176 162.052399,200.059204 
z"/>
<path fill="#5AB71A" opacity="1.000000" stroke="none" 
	d="
M153.984558,155.118469 
	C155.787018,156.339142 157.589493,157.559799 159.684082,159.330078 
	C158.661545,165.438248 160.170486,167.655670 165.501816,167.999435 
	C166.485825,168.062881 167.469864,168.125854 168.453888,168.189056 
	C166.869492,169.454315 165.285110,170.719574 163.125153,171.733429 
	C160.531693,171.482040 158.513824,171.482040 156.842209,171.482040 
	C155.825745,168.465485 154.905014,165.733002 154.263397,162.761353 
	C154.356522,160.054291 154.170532,157.586380 153.984558,155.118469 
z"/>
<path fill="#5DB111" opacity="1.000000" stroke="none" 
	d="
M119.054871,93.884102 
	C121.809906,94.568962 124.564941,95.253830 128.050186,96.120216 
	C127.159828,94.073051 126.612160,92.813858 126.061676,91.191666 
	C128.144714,91.824417 130.230591,92.820145 132.658539,94.359200 
	C132.999084,96.583359 132.997513,98.264191 132.995941,99.945030 
	C128.447403,102.137497 124.026649,101.459496 119.342117,98.718163 
	C119.028091,96.684364 119.041481,95.284233 119.054871,93.884102 
z"/>
<path fill="#4CAB1D" opacity="1.000000" stroke="none" 
	d="
M153.984283,163.000504 
	C154.905014,165.733002 155.825745,168.465485 156.842209,171.482040 
	C158.513824,171.482040 160.531693,171.482040 162.786438,171.771042 
	C159.991638,172.764404 156.959961,173.468750 153.360840,173.889709 
	C151.861649,173.060822 150.929886,172.515366 149.760696,171.753998 
	C147.993378,170.039932 146.463516,168.541779 145.216797,166.851105 
	C147.332016,165.438568 149.164078,164.218552 151.369843,162.999481 
	C152.490463,163.000458 153.237381,163.000488 153.984283,163.000504 
z"/>
<path fill="#2E901A" opacity="1.000000" stroke="none" 
	d="
M136.049530,196.663483 
	C134.940628,198.559601 133.821335,200.243851 132.010910,201.816177 
	C128.877014,201.128845 126.434219,200.553421 123.995361,199.594574 
	C124.844795,194.200745 127.108826,192.385406 133.353104,192.049286 
	C134.500473,193.417542 135.302063,194.724899 136.103653,196.032257 
	C136.103653,196.032257 136.039124,196.451599 136.049530,196.663483 
z"/>
<path fill="#50A617" opacity="1.000000" stroke="none" 
	d="
M120.992897,113.957596 
	C123.595924,114.347374 126.198959,114.737160 129.014801,114.774353 
	C129.728195,114.747940 130.228806,115.074112 130.869537,115.665451 
	C130.030914,118.383316 129.052170,120.836021 128.037842,123.656258 
	C126.824394,123.493111 125.646515,122.962425 124.167542,121.849777 
	C121.555191,120.532722 119.243935,119.797646 116.932678,119.062569 
	C116.932678,119.062569 117.002823,119.012787 116.864418,118.713425 
	C117.143265,116.627815 117.560509,114.841568 118.282051,113.149582 
	C119.388535,113.481750 120.190712,113.719673 120.992897,113.957596 
z"/>
<path fill="#0D8237" opacity="1.000000" stroke="none" 
	d="
M23.525183,185.902023 
	C24.442225,187.089188 24.956882,188.338898 25.735847,190.041626 
	C26.000154,190.494644 26.002354,190.988098 26.002354,190.988098 
	C21.785063,189.643982 20.173077,193.459122 17.307899,195.489197 
	C14.619182,193.462463 12.166258,191.206070 9.365676,188.629883 
	C14.602927,187.615204 18.862864,186.789886 23.525183,185.902023 
z"/>
<path fill="#AEE443" opacity="1.000000" stroke="none" 
	d="
M115.908005,134.113480 
	C122.499153,133.729721 126.799820,138.070419 131.748688,142.156021 
	C132.333771,143.127060 132.636536,143.598480 132.811966,144.390533 
	C132.441376,145.828979 132.198120,146.946793 131.705750,147.948257 
	C130.995514,147.539642 130.534378,147.247360 129.905563,146.667465 
	C127.479752,144.606400 125.221626,142.832977 122.765366,140.793640 
	C120.438210,139.311966 118.309181,138.096176 116.116150,136.538177 
	C116.004089,135.501831 115.956047,134.807648 115.908005,134.113480 
z"/>
<path fill="#4EB015" opacity="1.000000" stroke="none" 
	d="
M104.191544,49.296253 
	C101.872330,41.743614 99.726044,34.482262 97.868553,27.008064 
	C99.261185,29.426727 100.331093,32.073093 101.475380,34.686905 
	C104.633385,41.900505 107.822479,49.100491 110.991028,56.673462 
	C108.776680,54.556553 106.570572,52.072048 104.191544,49.296253 
z"/>
<path fill="#0F902E" opacity="1.000000" stroke="none" 
	d="
M90.052979,140.068161 
	C89.264259,136.183563 89.107704,131.924606 84.126190,130.106903 
	C86.989532,129.487885 90.055908,129.164673 93.559677,129.341873 
	C94.652336,133.183868 95.307579,136.525452 95.650879,139.897614 
	C94.578201,140.175003 93.817482,140.421829 92.712387,140.749634 
	C91.898392,140.809586 91.428757,140.788544 90.855621,140.597351 
	C90.554596,140.238373 90.321548,140.118683 90.052979,140.068161 
z"/>
<path fill="#6DC518" opacity="1.000000" stroke="none" 
	d="
M168.738983,168.049240 
	C167.469864,168.125854 166.485825,168.062881 165.501816,167.999435 
	C160.170486,167.655670 158.661545,165.438248 159.980698,159.505493 
	C164.128036,160.615875 168.270874,162.100449 172.755356,163.707443 
	C171.589905,165.019913 170.306992,166.464676 168.738983,168.049240 
z"/>
<path fill="#0D732E" opacity="1.000000" stroke="none" 
	d="
M44.698654,127.861710 
	C46.889645,126.257103 49.080643,124.652504 51.755928,123.270012 
	C54.527199,124.705276 56.814182,125.918442 59.101162,127.131607 
	C56.098240,129.481049 53.095322,131.830505 49.739944,133.984177 
	C47.824543,131.812836 46.261600,129.837280 44.698654,127.861710 
z"/>
<path fill="#249323" opacity="1.000000" stroke="none" 
	d="
M95.962830,139.867035 
	C95.307579,136.525452 94.652336,133.183868 93.995407,129.430130 
	C95.063995,128.969391 96.134247,128.920807 97.598282,128.962585 
	C98.606071,130.141678 98.970215,131.551147 99.880150,132.260025 
	C102.804398,134.538086 103.242973,137.075699 100.756958,140.482483 
	C98.783615,140.745239 97.397568,140.674454 96.017807,140.418289 
	C96.024086,140.232910 95.962830,139.867035 95.962830,139.867035 
z"/>
<path fill="#1C801E" opacity="1.000000" stroke="none" 
	d="
M119.024536,198.983627 
	C118.129509,200.123917 116.719467,201.150055 116.436676,202.426025 
	C115.610023,206.156021 113.413399,206.237854 110.159119,205.310532 
	C109.789810,205.395370 109.814713,205.359879 109.736755,205.048248 
	C109.329590,204.528748 109.000389,204.320908 108.671188,204.113052 
	C108.671188,204.113052 108.194878,204.165604 108.194878,204.165604 
	C108.194878,204.165604 107.725960,204.066879 107.429138,203.671127 
	C107.048218,202.573502 106.964104,201.871643 107.060638,200.833618 
	C108.924629,199.666626 110.711723,198.990158 112.255966,197.952332 
	C113.341690,197.222656 114.096931,196.001236 115.288742,195.134491 
	C116.726677,196.507614 117.875610,197.745621 119.024536,198.983627 
z"/>
<path fill="#0D732E" opacity="1.000000" stroke="none" 
	d="
M61.640213,114.092255 
	C62.964375,114.638275 64.196800,115.125336 65.013809,116.000305 
	C67.456421,118.616211 70.104080,120.349907 74.271362,119.152893 
	C71.012833,121.019371 67.338593,122.831360 63.329361,124.344719 
	C61.649002,121.662697 60.303627,119.279305 58.958260,116.895912 
	C59.758369,116.000816 60.558479,115.105713 61.640213,114.092255 
z"/>
<path fill="#097C2F" opacity="1.000000" stroke="none" 
	d="
M25.495075,161.807892 
	C25.793303,163.537750 25.671814,165.318726 25.481876,168.103104 
	C27.922390,168.389221 30.534634,168.695465 33.577187,169.006210 
	C32.852589,170.124298 31.697683,171.237885 30.285696,172.590179 
	C26.013920,170.018478 21.999224,167.208084 17.984529,164.397690 
	C18.260393,163.922592 18.536259,163.447479 18.812122,162.972382 
	C20.899868,162.601242 22.987614,162.230118 25.495075,161.807892 
z"/>
<path fill="#097C2F" opacity="1.000000" stroke="none" 
	d="
M58.655666,117.037827 
	C60.303627,119.279305 61.649002,121.662697 62.991516,124.416702 
	C62.988659,124.787308 62.717064,125.093460 62.162064,125.097183 
	C61.152637,125.531395 60.698215,125.961884 60.243790,126.392365 
	C60.243790,126.392365 60.194244,126.244698 59.985790,126.276733 
	C59.541134,126.583199 59.304932,126.857635 59.068733,127.132072 
	C59.068733,127.132072 59.081306,127.081703 59.091236,127.106659 
	C56.814182,125.918442 54.527199,124.705276 52.086880,123.171814 
	C54.073387,120.960922 56.213234,119.070328 58.655666,117.037827 
z"/>
<path fill="#3DA119" opacity="1.000000" stroke="none" 
	d="
M136.390106,195.927811 
	C135.302063,194.724899 134.500473,193.417542 133.355392,191.640320 
	C133.079575,190.355698 133.147247,189.540939 133.584015,188.781631 
	C138.648132,190.597092 143.343185,192.357101 148.038223,194.117126 
	C146.541489,198.807190 142.981903,195.337311 140.066315,196.054749 
	C138.664307,195.994583 137.670425,195.908966 136.390106,195.927811 
z"/>
<path fill="#93D720" opacity="1.000000" stroke="none" 
	d="
M149.998138,171.969894 
	C150.929886,172.515366 151.861649,173.060822 152.939621,173.895996 
	C154.653580,175.863968 156.221313,177.542206 157.940155,179.499237 
	C155.817230,180.352020 153.543182,180.926010 150.786469,181.798965 
	C149.865356,182.096939 149.426895,182.095947 148.882111,181.862579 
	C148.511749,181.422516 148.247726,181.214844 147.954346,180.681931 
	C147.278412,179.250183 146.631821,178.143677 146.146637,176.722595 
	C147.538071,174.928635 148.768097,173.449265 149.998138,171.969894 
z"/>
<path fill="#0D8237" opacity="1.000000" stroke="none" 
	d="
M44.344986,127.887779 
	C46.261600,129.837280 47.824543,131.812836 49.437122,134.128036 
	C49.486755,134.467667 49.472649,134.433914 49.151653,134.409943 
	C48.646679,134.715790 48.462700,135.045624 48.278717,135.375458 
	C48.278717,135.375458 48.220650,135.231476 47.998020,135.283417 
	C47.582455,135.660843 47.389519,135.986359 47.196587,136.311859 
	C47.196587,136.311859 47.120842,136.161835 46.881134,136.118301 
	C46.430378,136.042862 46.219334,136.010971 46.008286,135.979065 
	C43.083515,134.678375 40.158745,133.377670 36.867680,131.927063 
	C38.998028,130.489380 41.494675,129.201614 44.344986,127.887779 
z"/>
<path fill="#1C801E" opacity="1.000000" stroke="none" 
	d="
M123.991432,199.977997 
	C126.434219,200.553421 128.877014,201.128845 131.657410,201.853302 
	C133.237350,203.462265 134.479691,204.922211 135.858841,206.671875 
	C134.226059,206.977631 132.456467,206.993652 130.193085,206.733810 
	C129.450607,206.233673 129.158875,206.116913 128.824097,206.107635 
	C128.824097,206.107635 128.882935,206.089066 128.867859,206.116180 
	C126.338348,204.304474 123.823891,202.465652 121.526093,200.317459 
	C122.492302,199.998062 123.241867,199.988037 123.991432,199.977997 
z"/>
<path fill="#5DB111" opacity="1.000000" stroke="none" 
	d="
M110.982201,78.060478 
	C111.499176,77.710533 112.016159,77.360596 112.858368,76.973412 
	C117.091530,81.055542 120.999458,85.174919 125.012962,89.620804 
	C124.004478,89.719910 122.605865,89.841537 121.825287,89.205124 
	C118.322121,86.348930 114.994690,83.277191 111.299034,79.811508 
	C110.990211,78.913361 110.986206,78.486916 110.982201,78.060478 
z"/>
<path fill="#7CC918" opacity="1.000000" stroke="none" 
	d="
M156.315796,142.875153 
	C156.141342,141.622940 156.089020,140.254105 156.519485,139.059219 
	C157.167068,137.261780 158.152573,135.586075 158.991669,133.496460 
	C160.876022,133.134308 162.763123,133.134308 164.650223,133.134308 
	C164.933914,133.556702 165.217606,133.979111 165.501297,134.401505 
	C162.552216,137.213135 159.603119,140.024780 156.315796,142.875153 
z"/>
<path fill="#50A617" opacity="1.000000" stroke="none" 
	d="
M161.015305,195.999634 
	C159.724869,195.585754 158.434418,195.171890 157.462616,194.391296 
	C158.519684,194.015640 159.258148,194.006683 160.261047,193.995483 
	C160.701614,193.984894 160.877731,193.976532 161.264572,193.959747 
	C161.475296,193.951309 161.896790,193.935562 162.287872,193.954102 
	C165.092651,193.016617 167.506332,192.060577 169.920013,191.104538 
	C170.371780,191.084030 170.823532,191.063538 171.641418,191.444809 
	C172.941971,193.012589 173.876404,194.178589 174.810852,195.344604 
	C174.550797,195.582840 174.290741,195.821060 173.266907,196.067108 
	C168.673859,196.049835 164.844574,196.024734 161.015305,195.999634 
z"/>
<path fill="#623E1A" opacity="1.000000" stroke="none" 
	d="
M106.879990,201.169769 
	C106.964104,201.871643 107.048218,202.573502 107.195496,203.618179 
	C107.235916,207.011078 107.213173,210.061188 107.087723,213.552368 
	C105.467827,212.012131 103.950630,210.030807 102.203690,207.626373 
	C102.730286,204.520447 103.486626,201.837631 104.489067,199.278992 
	C105.450119,199.992035 106.165054,200.580902 106.879990,201.169769 
z"/>
<path fill="#43A320" opacity="1.000000" stroke="none" 
	d="
M117.977753,113.055328 
	C117.560509,114.841568 117.143265,116.627815 116.841705,118.749962 
	C114.748207,118.589958 112.539024,118.094055 110.018051,117.389565 
	C109.614998,114.789505 109.075523,112.170517 113.083832,111.421806 
	C115.073830,111.856300 116.525795,112.455811 117.977753,113.055328 
z"/>
<path fill="#4EB015" opacity="1.000000" stroke="none" 
	d="
M154.263397,162.761353 
	C153.237381,163.000488 152.490463,163.000458 151.368744,162.610291 
	C151.220383,159.391861 150.109039,157.800659 146.802460,157.973755 
	C146.344116,157.973770 146.160889,157.985062 145.991882,157.994553 
	C146.006119,157.992752 146.009796,158.021210 145.934662,157.743835 
	C145.558212,156.981491 145.256882,156.496506 145.381561,156.001099 
	C148.276443,155.630524 150.745285,155.270370 153.214142,154.910233 
	C153.214142,154.910233 153.618866,154.942535 153.801712,155.030502 
	C154.170532,157.586380 154.356522,160.054291 154.263397,162.761353 
z"/>
<path fill="#43A320" opacity="1.000000" stroke="none" 
	d="
M115.598778,134.037903 
	C115.956047,134.807648 116.004089,135.501831 115.809258,136.690125 
	C114.039253,138.457581 112.512138,139.730927 110.985016,141.004272 
	C110.014091,140.423157 108.150833,139.643799 108.228195,139.295578 
	C108.546860,137.861191 109.287903,136.427444 110.205399,135.252518 
	C110.804054,134.485901 111.973503,134.164993 112.958153,133.283295 
	C113.782539,133.268875 114.536041,133.615601 115.598778,134.037903 
z"/>
<path fill="#62BA20" opacity="1.000000" stroke="none" 
	d="
M153.153107,154.566803 
	C150.745285,155.270370 148.276443,155.630524 145.161591,155.976746 
	C144.515579,155.962830 144.074051,155.919739 143.966064,155.704681 
	C143.668030,155.217804 143.419037,155.020279 143.076080,154.599442 
	C142.970642,153.909454 142.900192,153.517075 143.040375,152.902771 
	C143.371933,152.516525 143.492844,152.352219 143.613739,152.187927 
	C145.427902,151.830338 147.242081,151.472748 150.143463,150.900864 
	C150.557465,151.367355 151.824753,152.795364 153.153107,154.566803 
z"/>
<path fill="#249323" opacity="1.000000" stroke="none" 
	d="
M91.612656,29.059601 
	C91.004517,33.350803 90.059044,37.793961 89.039505,42.928562 
	C88.923866,44.034264 88.882294,44.448517 88.615662,45.050457 
	C87.901215,45.823898 87.411835,46.409653 86.922455,46.995415 
	C86.473267,46.987049 86.024071,46.978683 85.238861,46.951939 
	C87.027000,41.026222 89.151161,35.118889 91.612656,29.059601 
z"/>
<path fill="#50AB1E" opacity="1.000000" stroke="none" 
	d="
M161.021088,196.355377 
	C164.844574,196.024734 168.673859,196.049835 172.999268,196.117126 
	C169.947510,197.501556 166.399612,198.843781 162.452057,200.122589 
	C161.710556,198.943176 161.368713,197.827148 161.021088,196.355377 
z"/>
<path fill="#0D8237" opacity="1.000000" stroke="none" 
	d="
M31.512184,132.858368 
	C32.249359,135.187820 36.244465,137.353333 31.961313,140.064682 
	C29.664837,138.035614 27.750479,135.934830 25.257139,133.198685 
	C27.953279,133.067627 29.532974,132.990829 31.512184,132.858368 
z"/>
<path fill="#6ABD0D" opacity="1.000000" stroke="none" 
	d="
M175.108673,195.239090 
	C173.876404,194.178589 172.941971,193.012589 171.980682,191.449585 
	C173.257309,190.652512 174.560760,190.252441 175.950500,189.505402 
	C177.302704,189.158417 178.568634,189.158417 181.317245,189.158417 
	C178.817673,191.685211 177.112076,193.409393 175.108673,195.239090 
z"/>
<path fill="#68431E" opacity="1.000000" stroke="none" 
	d="
M67.429626,270.717529 
	C67.867691,270.077057 68.833382,269.614471 69.542168,268.897797 
	C70.533470,267.895477 71.333206,266.703674 72.113235,265.301331 
	C72.828453,264.877625 73.645348,264.745483 74.754669,264.729034 
	C74.947784,266.375671 74.848488,267.906586 74.879135,269.727051 
	C72.620255,270.271729 70.231438,270.526886 67.429626,270.717529 
z"/>
<path fill="#50A617" opacity="1.000000" stroke="none" 
	d="
M118.826187,93.633377 
	C119.041481,95.284233 119.028091,96.684364 119.023026,98.502373 
	C117.923164,98.573639 116.814972,98.227028 115.363968,97.963699 
	C114.690407,96.274330 114.359657,94.501663 114.058678,92.328903 
	C115.591469,92.413422 117.094490,92.898041 118.826187,93.633377 
z"/>
<path fill="#62BA20" opacity="1.000000" stroke="none" 
	d="
M143.772507,124.736435 
	C138.410400,126.866150 136.615158,122.443787 134.204559,118.751617 
	C137.366959,120.395607 140.475113,122.428375 143.772507,124.736435 
z"/>
<path fill="#6DC518" opacity="1.000000" stroke="none" 
	d="
M133.354874,99.931335 
	C132.997513,98.264191 132.999084,96.583359 132.994537,94.482544 
	C134.990463,94.463615 136.992477,94.864677 140.417603,95.550819 
	C137.537262,97.427071 135.625534,98.672363 133.354874,99.931335 
z"/>
<path fill="#62BA20" opacity="1.000000" stroke="none" 
	d="
M136.176270,144.811707 
	C138.109436,146.598511 140.042603,148.385300 142.034851,150.540909 
	C142.093918,150.909714 141.962372,151.036102 141.616211,151.030090 
	C139.512772,149.016647 137.755493,147.009232 136.042664,144.954224 
	C136.087143,144.906662 136.176270,144.811707 136.176270,144.811707 
z"/>
<path fill="#43A320" opacity="1.000000" stroke="none" 
	d="
M117.175522,119.307724 
	C119.243935,119.797646 121.555191,120.532722 123.930481,121.626846 
	C121.802460,121.174873 119.610405,120.363876 117.175522,119.307724 
z"/>
<path fill="#62BA20" opacity="1.000000" stroke="none" 
	d="
M132.939301,144.069901 
	C132.636536,143.598480 132.333771,143.127060 132.029541,142.360077 
	C133.310242,142.787949 134.592422,143.511353 136.025436,144.523239 
	C136.176270,144.811707 136.087143,144.906662 135.717941,144.954956 
	C134.545593,144.692139 133.742447,144.381027 132.939301,144.069901 
z"/>
<path fill="#0D732E" opacity="1.000000" stroke="none" 
	d="
M60.551311,126.320496 
	C60.698215,125.961884 61.152637,125.531395 61.957497,125.102097 
	C61.824894,125.485062 61.341862,125.866844 60.551311,126.320496 
z"/>
<path fill="#62BA20" opacity="1.000000" stroke="none" 
	d="
M142.159592,150.846420 
	C142.597336,151.109390 142.969421,151.435654 143.477615,151.974915 
	C143.492844,152.352219 143.371933,152.516525 142.815002,152.706055 
	C142.240112,152.166229 142.101242,151.601166 141.962372,151.036102 
	C141.962372,151.036102 142.093918,150.909714 142.159592,150.846420 
z"/>
<path fill="#15781E" opacity="1.000000" stroke="none" 
	d="
M108.766663,204.389557 
	C109.000389,204.320908 109.329590,204.528748 109.722092,205.032806 
	C109.477638,205.108047 109.169884,204.887054 108.766663,204.389557 
z"/>
<path fill="#0D732E" opacity="1.000000" stroke="none" 
	d="
M59.341438,127.094528 
	C59.304932,126.857635 59.541134,126.583199 60.060127,126.299934 
	C60.099998,126.546394 59.857071,126.801689 59.341438,127.094528 
z"/>
<path fill="#0D732E" opacity="1.000000" stroke="none" 
	d="
M48.530369,135.300446 
	C48.462700,135.045624 48.646679,134.715790 49.135597,134.411438 
	C49.221031,134.699783 49.001526,134.962616 48.530369,135.300446 
z"/>
<path fill="#0D732E" opacity="1.000000" stroke="none" 
	d="
M47.463421,136.230164 
	C47.389519,135.986359 47.582455,135.660843 48.072975,135.303604 
	C48.157127,135.564056 47.943691,135.856262 47.463421,136.230164 
z"/>
<path fill="#0D732E" opacity="1.000000" stroke="none" 
	d="
M46.001915,136.232697 
	C46.219334,136.010971 46.430378,136.042862 46.948624,136.168365 
	C47.021160,136.548843 46.786503,136.835724 46.269100,137.058167 
	C45.989414,136.824600 45.992477,136.655472 46.001915,136.232697 
z"/>
<path fill="#15781E" opacity="1.000000" stroke="none" 
	d="
M128.916946,206.360321 
	C129.158875,206.116913 129.450607,206.233673 129.835449,206.654938 
	C129.651016,206.772293 129.330414,206.692657 128.916946,206.360321 
z"/>
<path fill="#FAFCFA" opacity="1.000000" stroke="none" 
	d="
M96.011528,140.603683 
	C97.397568,140.674454 98.783615,140.745239 100.586327,140.772797 
	C104.081184,141.450073 107.159363,142.170609 110.961700,143.010880 
	C114.464813,144.350342 117.243782,145.570068 120.294212,147.014786 
	C122.648468,148.637848 124.731255,150.035904 126.987007,151.709015 
	C128.752197,153.037079 130.344406,154.090103 131.952057,155.493408 
	C136.250580,161.888092 136.249191,161.886993 131.402939,168.015991 
	C131.208557,168.261841 131.089447,168.567215 130.611008,168.886078 
	C129.198395,168.284912 128.110062,167.642548 126.872231,166.698349 
	C120.971390,161.146942 114.703979,156.799118 106.616600,154.932373 
	C105.616135,154.648010 104.935295,154.504227 103.987770,154.233368 
	C103.134850,154.112991 102.548615,154.119644 101.515198,154.028900 
	C97.706398,154.006516 94.344772,154.081512 90.615463,154.116974 
	C88.154602,154.683411 86.061440,155.289383 83.594490,155.899216 
	C77.829170,159.275131 72.437630,162.647186 66.748093,166.141998 
	C65.075195,167.129456 63.700291,167.994156 62.325386,168.858871 
	C60.381165,166.380630 58.436943,163.902405 56.236000,161.209900 
	C56.923168,159.581482 57.867058,158.167328 59.248215,156.326233 
	C62.820431,153.286972 65.955383,150.674652 69.090340,148.062332 
	C69.090340,148.062332 69.024620,148.014587 69.343948,147.998703 
	C69.968330,147.700302 70.273384,147.417801 70.578445,147.135284 
	C71.014374,146.998596 71.450294,146.861908 72.362762,146.449249 
	C76.016708,144.822647 79.194107,143.472000 82.371506,142.121368 
	C84.671043,141.759644 86.970589,141.397919 89.890366,141.000549 
	C90.510597,140.964935 90.959129,140.767502 90.959129,140.767502 
	C91.428757,140.788544 91.898392,140.809586 93.076157,140.845398 
	C94.526703,140.774689 95.269119,140.689194 96.011528,140.603683 
z"/>
<path fill="#0D732E" opacity="1.000000" stroke="none" 
	d="
M68.634026,148.043518 
	C65.955383,150.674652 62.820431,153.286972 59.370239,156.026337 
	C58.911873,147.951874 58.911873,147.951874 68.634026,148.043518 
z"/>
<path fill="#0D732E" opacity="1.000000" stroke="none" 
	d="
M81.970520,142.093704 
	C79.194107,143.472000 76.016708,144.822647 72.474075,146.243347 
	C71.734482,143.207977 72.145454,140.706207 76.599274,140.996552 
	C78.526749,141.350769 80.048141,141.708405 81.970520,142.093704 
z"/>
<path fill="#078A33" opacity="1.000000" stroke="none" 
	d="
M52.916374,160.833130 
	C53.005814,161.002182 52.512169,161.015350 52.265381,161.013901 
	C52.288040,160.896317 52.557487,160.780182 52.916374,160.833130 
z"/>
<path fill="#0D732E" opacity="1.000000" stroke="none" 
	d="
M70.260208,147.184662 
	C70.273384,147.417801 69.968330,147.700302 69.349075,148.039001 
	C69.337234,147.808121 69.639603,147.521072 70.260208,147.184662 
z"/>
<path fill="#FAFCFA" opacity="1.000000" stroke="none" 
	d="
M104.242966,199.154831 
	C103.486626,201.837631 102.730286,204.520447 101.840347,207.556274 
	C101.409035,207.886032 101.170982,207.994171 100.563797,208.550049 
	C96.493576,211.210464 93.302299,209.438248 90.099762,207.768982 
	C89.002769,205.093597 87.905785,202.418228 86.835831,199.005219 
	C89.239502,195.793869 91.616119,193.320145 94.373169,190.917053 
	C96.484718,191.372589 98.215843,191.757523 100.121346,192.430222 
	C101.611465,194.863617 102.927216,197.009216 104.242966,199.154831 
z"/>
<path fill="#68431E" opacity="1.000000" stroke="none" 
	d="
M89.927292,208.066498 
	C93.302299,209.438248 96.493576,211.210464 100.511078,208.746674 
	C99.591522,214.467346 98.295883,220.307770 97.110497,226.838486 
	C97.492058,228.032806 97.763367,228.536804 98.020477,229.037018 
	C98.006279,229.033234 98.024803,229.011200 97.658974,229.043793 
	C95.215996,229.712891 93.138847,230.349380 91.048523,230.537140 
	C91.017693,227.395187 91.000038,224.701965 90.982384,222.008759 
	C90.336395,218.696411 89.571419,215.400589 89.108467,212.062851 
	C88.944748,210.882492 89.518021,209.599930 89.927292,208.066498 
z"/>
<path fill="#0D7A26" opacity="1.000000" stroke="none" 
	d="
M93.992744,190.846420 
	C91.616119,193.320145 89.239502,195.793869 86.747696,198.616302 
	C86.632515,198.965012 86.328529,198.994537 86.176102,199.002777 
	C83.117256,195.210953 80.210831,191.410904 77.274490,187.073212 
	C77.526825,186.344543 77.809067,186.153488 78.460159,186.040756 
	C81.866570,184.346863 84.904137,182.574646 88.079674,181.121933 
	C90.142677,184.576447 92.067711,187.711426 93.992744,190.846420 
z"/>
<path fill="#44301D" opacity="1.000000" stroke="none" 
	d="
M90.610138,222.081482 
	C91.000038,224.701965 91.017693,227.395187 91.030426,230.902847 
	C91.340401,232.814178 91.655304,233.911041 91.974655,235.406876 
	C91.986336,236.870087 91.993553,237.934341 91.997421,239.415833 
	C92.004234,241.224487 92.014404,242.615891 92.024582,244.007294 
	C92.011711,248.358276 91.998840,252.709259 91.977066,257.523254 
	C90.542892,257.921204 89.117630,257.856140 88.100891,257.809692 
	C87.160789,255.396790 86.371704,253.371490 86.228935,251.091675 
	C87.258797,250.175827 87.944145,249.530197 87.979462,248.850784 
	C88.356117,241.604797 88.629768,234.353470 88.931702,227.103607 
	C89.367104,225.453796 89.802498,223.804001 90.610138,222.081482 
z"/>
<path fill="#92602F" opacity="1.000000" stroke="none" 
	d="
M88.697060,226.912415 
	C88.629768,234.353470 88.356117,241.604797 87.979462,248.850784 
	C87.944145,249.530197 87.258797,250.175827 86.473213,250.899353 
	C86.403564,243.284775 86.714546,235.606827 87.125450,227.934235 
	C87.148323,227.507263 87.997719,227.124527 88.697060,226.912415 
z"/>
<path fill="#09722B" opacity="1.000000" stroke="none" 
	d="
M61.943829,168.925385 
	C63.700291,167.994156 65.075195,167.129456 67.051170,166.295197 
	C71.114014,168.250168 74.575783,170.174683 77.898010,172.398743 
	C75.856049,175.098587 73.953621,177.498901 72.026367,180.180649 
	C71.986595,180.649857 71.971649,180.837616 71.956711,181.025360 
	C67.860420,180.586121 63.764133,180.146896 59.183411,179.697144 
	C58.465530,180.127716 58.232079,180.568817 57.998627,181.009903 
	C57.998627,181.009903 57.998932,180.998779 57.627769,181.003815 
	C54.837654,181.343292 52.418694,181.677719 49.999741,182.012131 
	C53.178791,178.085846 56.332859,174.138763 59.564068,170.255875 
	C60.043739,169.679459 60.887146,169.405701 61.943829,168.925385 
z"/>
<path fill="#048A36" opacity="1.000000" stroke="none" 
	d="
M49.681293,182.151108 
	C52.418694,181.677719 54.837654,181.343292 57.633274,181.003815 
	C52.100174,189.438660 43.353539,191.059784 33.468353,191.032623 
	C30.972595,191.027283 28.925394,191.011765 26.440273,190.992157 
	C26.002354,190.988098 26.000154,190.494644 25.999504,190.247925 
	C28.745604,189.363449 31.492352,188.725693 34.624222,188.037262 
	C39.793842,186.087769 44.578346,184.188919 49.681293,182.151108 
z"/>
<path fill="#0D832E" opacity="1.000000" stroke="none" 
	d="
M71.936447,181.365891 
	C71.971649,180.837616 71.986595,180.649857 72.317169,180.338470 
	C74.452293,182.130722 76.271797,184.046570 78.091301,185.962418 
	C77.809067,186.153488 77.526825,186.344543 77.121750,186.762970 
	C75.856667,187.903427 74.714409,188.816528 73.287300,189.863068 
	C72.021408,188.878647 71.040367,187.760788 70.026154,186.309235 
	C70.634041,184.552521 71.275116,183.129471 71.936447,181.365891 
z"/>
<path fill="#048A36" opacity="1.000000" stroke="none" 
	d="
M58.216351,180.897278 
	C58.232079,180.568817 58.465530,180.127716 58.847954,179.842285 
	C58.894058,180.320801 58.706440,180.583054 58.216351,180.897278 
z"/>
<path fill="#51B128" opacity="1.000000" stroke="none" 
	d="
M83.943726,54.851597 
	C84.002060,54.565800 84.135101,54.320526 84.946594,54.038250 
	C89.020287,54.974606 92.490227,55.988487 96.131088,57.377811 
	C96.834206,61.843132 97.366402,65.933006 97.506226,70.015045 
	C91.823021,69.572762 91.602478,73.525177 90.683975,77.217957 
	C89.624779,77.944336 88.845192,78.568382 88.013580,78.815315 
	C86.554520,77.593559 85.147476,76.748901 83.740433,75.904243 
	C85.606415,72.325798 87.532280,68.776772 89.310585,65.155281 
	C90.084419,63.579372 90.555214,61.854664 91.358269,59.667408 
	C89.805984,59.814838 88.769478,59.913280 87.220047,59.716072 
	C85.785988,57.897476 84.864861,56.374535 83.943726,54.851597 
z"/>
<path fill="#57B824" opacity="1.000000" stroke="none" 
	d="
M95.960175,57.002365 
	C92.490227,55.988487 89.020287,54.974606 85.124565,53.923569 
	C85.419273,51.831005 86.139755,49.775593 86.891342,47.357796 
	C87.411835,46.409653 87.901215,45.823898 88.904266,45.272049 
	C91.680061,46.845917 93.942184,48.385872 96.204308,49.925827 
	C96.714096,50.772083 97.223892,51.618340 97.961899,52.973648 
	C98.444519,53.709625 98.698914,53.936550 98.953308,54.163475 
	C98.958542,54.564827 98.963768,54.966183 98.637054,55.686928 
	C97.523468,56.338337 96.741821,56.670353 95.960175,57.002365 
z"/>
<path fill="#46AB24" opacity="1.000000" stroke="none" 
	d="
M83.431755,75.991150 
	C85.147476,76.748901 86.554520,77.593559 87.954529,79.140961 
	C84.316925,82.311028 80.686348,84.778343 77.039673,86.837952 
	C77.010674,85.613808 76.997787,84.797386 76.984901,83.980957 
	C79.030952,81.346657 81.077011,78.712357 83.431755,75.991150 
z"/>
<path fill="#57B824" opacity="1.000000" stroke="none" 
	d="
M83.659058,55.042221 
	C84.864861,56.374535 85.785988,57.897476 86.867920,59.734154 
	C84.374077,61.212555 81.719444,62.377216 79.064804,63.541882 
	C78.746674,63.097271 78.428551,62.652664 78.110420,62.208054 
	C79.865074,59.882984 81.619728,57.557911 83.659058,55.042221 
z"/>
<path fill="#3FA22A" opacity="1.000000" stroke="none" 
	d="
M76.687424,84.129700 
	C76.997787,84.797386 77.010674,85.613808 76.879440,87.084084 
	C75.811035,88.481766 74.886742,89.225594 73.962448,89.969429 
	C73.169441,90.234444 72.376427,90.499458 71.300339,90.912796 
	C70.225250,91.353996 69.433235,91.646881 68.325279,91.975967 
	C70.802879,89.434258 73.596413,86.856346 76.687424,84.129700 
z"/>
<path fill="#2F9B24" opacity="1.000000" stroke="none" 
	d="
M94.001213,108.646194 
	C90.624672,109.343262 87.253502,109.675995 83.438507,109.662163 
	C82.330399,107.877800 81.666107,106.440002 81.001816,105.002197 
	C82.319954,102.580521 83.638084,100.158844 85.266670,97.178169 
	C87.062073,93.741280 88.547005,90.863373 90.401993,87.997269 
	C92.499916,90.004631 94.227776,92.000183 95.997887,94.315430 
	C96.679169,95.426506 97.318192,96.217888 97.957214,97.009270 
	C97.957214,97.009270 97.986542,97.005707 97.980186,97.319153 
	C98.302605,98.090477 98.631378,98.548363 98.960152,99.006248 
	C98.960152,99.006248 98.984612,99.017876 98.975204,99.344521 
	C98.986771,100.088707 99.007729,100.506256 99.028687,100.923798 
	C97.354652,103.376488 95.680618,105.829170 94.001213,108.646194 
z"/>
<path fill="#07832A" opacity="1.000000" stroke="none" 
	d="
M90.031937,87.985466 
	C88.547005,90.863373 87.062073,93.741280 85.312180,96.830460 
	C81.538895,94.817848 78.030548,92.593941 74.242325,90.169731 
	C74.886742,89.225594 75.811035,88.481766 76.895554,87.491791 
	C80.686348,84.778343 84.316925,82.311028 88.006546,79.518066 
	C88.845192,78.568382 89.624779,77.944336 90.688843,77.577942 
	C91.267204,79.233978 91.561089,80.632385 91.712914,82.346664 
	C91.057877,84.436844 90.544907,86.211159 90.031937,87.985466 
z"/>
<path fill="#249323" opacity="1.000000" stroke="none" 
	d="
M80.734413,105.190399 
	C81.666107,106.440002 82.330399,107.877800 82.998062,109.669403 
	C80.601974,110.680260 78.202507,111.337311 75.405228,111.995911 
	C76.827278,109.791168 78.647141,107.584877 80.734413,105.190399 
z"/>
<path fill="#AF752E" opacity="1.000000" stroke="none" 
	d="
M97.995193,246.002213 
	C98.003830,245.555893 98.012474,245.109573 98.010857,243.873871 
	C98.008659,238.393387 98.016731,233.702301 98.024803,229.011200 
	C98.024803,229.011200 98.006279,229.033234 98.405312,229.098236 
	C99.839523,233.425339 100.874710,237.687454 102.186859,242.158051 
	C103.620773,244.565186 104.777718,246.763855 105.934662,248.962524 
	C105.941818,249.419876 105.948967,249.877213 105.589211,250.740768 
	C102.800659,253.722534 103.879456,254.774796 106.892624,254.985260 
	C106.905792,255.444229 106.918961,255.903214 106.664612,256.807800 
	C105.933640,257.501801 105.470192,257.750183 105.006744,257.998535 
	C104.606895,257.543762 104.207054,257.088989 103.728806,256.545044 
	C103.047318,259.824249 102.420113,262.842224 101.400322,265.923340 
	C100.092461,261.273712 99.177185,256.560913 98.187286,251.033142 
	C98.073509,248.812866 98.034355,247.407532 97.995193,246.002213 
z"/>
<path fill="#B47B31" opacity="1.000000" stroke="none" 
	d="
M105.955109,248.518082 
	C104.777718,246.763855 103.620773,244.565186 102.205261,241.695282 
	C101.946999,234.361221 101.947296,227.698395 101.947586,221.035568 
	C102.025116,219.739944 102.102646,218.444305 102.180176,217.148682 
	C102.530685,217.115585 102.881195,217.082474 103.231712,217.049377 
	C103.931702,224.511246 104.631691,231.973114 105.589661,239.751099 
	C105.890282,242.736008 105.932915,245.404831 105.955109,248.518082 
z"/>
<path fill="#B47B31" opacity="1.000000" stroke="none" 
	d="
M105.003250,258.414734 
	C105.470192,257.750183 105.933640,257.501801 106.637367,257.151306 
	C107.142502,259.526062 107.407356,262.002899 107.672218,264.479767 
	C107.161865,264.591858 106.651512,264.703949 106.141167,264.816071 
	C105.760696,262.820984 105.380226,260.825928 105.003250,258.414734 
z"/>
<path fill="#B47B31" opacity="1.000000" stroke="none" 
	d="
M106.891464,254.640869 
	C103.879456,254.774796 102.800659,253.722534 105.566177,251.083191 
	C106.236801,252.111755 106.563553,253.204132 106.891464,254.640869 
z"/>
<path fill="#623E1A" opacity="1.000000" stroke="none" 
	d="
M97.658974,229.043793 
	C98.016731,233.702301 98.008659,238.393387 97.979950,243.540253 
	C96.263428,243.998001 94.567543,243.999969 92.448120,244.004608 
	C92.014404,242.615891 92.004234,241.224487 92.344345,239.354980 
	C94.678383,237.170578 94.774040,235.817795 91.970200,235.007919 
	C91.655304,233.911041 91.340401,232.814178 91.043594,231.351593 
	C93.138847,230.349380 95.215996,229.712891 97.658974,229.043793 
z"/>
<path fill="#623E1A" opacity="1.000000" stroke="none" 
	d="
M97.724075,246.235123 
	C98.034355,247.407532 98.073509,248.812866 98.105896,250.643692 
	C97.883743,249.535477 97.668350,248.001755 97.724075,246.235123 
z"/>
<path fill="#86CF32" opacity="1.000000" stroke="none" 
	d="
M118.282051,113.149582 
	C116.525795,112.455811 115.073830,111.856300 113.294830,111.171074 
	C110.075432,109.262581 107.183075,107.439804 104.285461,105.072182 
	C104.860847,104.310913 105.441475,104.094475 106.022110,103.878044 
	C106.450836,103.918350 106.879562,103.958664 107.629608,104.023300 
	C111.116745,105.949562 114.345840,107.756210 117.419250,109.797302 
	C118.770706,110.694824 119.805191,112.069618 120.988243,113.592651 
	C120.190712,113.719673 119.388535,113.481750 118.282051,113.149582 
z"/>
<path fill="#62BA20" opacity="1.000000" stroke="none" 
	d="
M105.860893,103.592392 
	C105.441475,104.094475 104.860847,104.310913 104.102448,104.788010 
	C102.481049,103.778801 101.037407,102.508942 99.311218,101.081436 
	C99.007729,100.506256 98.986771,100.088707 98.970383,99.357178 
	C101.216530,100.464371 103.458107,101.885551 105.860893,103.592392 
z"/>
<path fill="#86CF32" opacity="1.000000" stroke="none" 
	d="
M96.131088,57.377815 
	C96.741821,56.670353 97.523468,56.338337 98.641769,55.988010 
	C99.293556,57.022236 99.608696,58.074768 99.951103,59.449093 
	C101.043770,67.151604 105.941811,72.312332 110.683464,77.898582 
	C110.986206,78.486916 110.990211,78.913361 111.001419,79.659729 
	C110.833961,82.514229 110.659302,85.048798 110.226212,87.800850 
	C109.798538,88.034492 109.629288,88.050652 108.908829,87.940445 
	C105.270073,84.486862 102.182533,81.159630 99.066353,77.442566 
	C98.658005,74.709450 98.278297,72.366165 97.898598,70.022881 
	C97.366402,65.933006 96.834206,61.843132 96.131088,57.377815 
z"/>
<path fill="#51B128" opacity="1.000000" stroke="none" 
	d="
M96.163605,49.535107 
	C93.942184,48.385872 91.680061,46.845917 89.129326,45.084366 
	C88.882294,44.448517 88.923866,44.034264 88.995834,43.307869 
	C90.739334,42.996918 92.452446,42.998104 94.595573,42.999462 
	C95.332253,43.789200 95.638924,44.578773 96.009399,45.681091 
	C96.089775,47.044018 96.106339,48.094204 96.163605,49.535107 
z"/>
<path fill="#9BD83C" opacity="1.000000" stroke="none" 
	d="
M98.875671,53.911926 
	C98.698914,53.936550 98.444519,53.709625 98.098328,53.241833 
	C98.270370,53.220768 98.534210,53.440571 98.875671,53.911926 
z"/>
<path fill="#3FA22A" opacity="1.000000" stroke="none" 
	d="
M90.855621,140.597351 
	C90.959129,140.767502 90.510597,140.964935 90.273727,140.905090 
	C90.036850,140.845261 90.028954,140.455612 90.040970,140.261887 
	C90.321548,140.118683 90.554596,140.238373 90.855621,140.597351 
z"/>
<path fill="#43A320" opacity="1.000000" stroke="none" 
	d="
M99.095001,77.832397 
	C102.182533,81.159630 105.270073,84.486862 108.658180,87.987534 
	C105.546974,90.667503 102.135185,93.174026 98.252472,95.565277 
	C97.172905,94.965240 96.564270,94.480484 95.955635,93.995735 
	C94.227776,92.000183 92.499916,90.004631 90.401993,87.997269 
	C90.544907,86.211159 91.057877,84.436844 92.095932,82.332550 
	C94.779007,80.612511 96.937004,79.222450 99.095001,77.832397 
z"/>
<path fill="#62BA20" opacity="1.000000" stroke="none" 
	d="
M95.997887,94.315430 
	C96.564270,94.480484 97.172905,94.965240 97.923691,95.711288 
	C98.049080,96.145515 98.032326,96.318451 97.986389,96.750336 
	C97.318192,96.217888 96.679169,95.426506 95.997887,94.315430 
z"/>
<path fill="#62BA20" opacity="1.000000" stroke="none" 
	d="
M98.962997,98.705688 
	C98.631378,98.548363 98.302605,98.090477 97.975739,97.333206 
	C98.307037,97.490929 98.636436,97.948029 98.962997,98.705688 
z"/>
<path fill="#50A617" opacity="1.000000" stroke="none" 
	d="
M111.184952,90.059341 
	C111.612724,89.994781 112.160011,90.227814 112.876221,90.707642 
	C112.464912,90.755272 111.884689,90.556099 111.184952,90.059341 
z"/>
<path fill="#50A617" opacity="1.000000" stroke="none" 
	d="
M113.128754,91.178513 
	C113.315315,91.120186 113.598618,91.291054 113.961823,91.700638 
	C113.697906,91.872246 113.425835,91.695030 113.128754,91.178513 
z"/>
<path fill="#33991D" opacity="1.000000" stroke="none" 
	d="
M123.995361,199.594574 
	C123.241867,199.988037 122.492302,199.998062 121.367653,200.015930 
	C120.507210,199.750275 120.021851,199.476807 119.280510,199.093475 
	C117.875610,197.745621 116.726677,196.507614 115.181656,194.913803 
	C114.587753,194.281876 114.327263,194.091522 113.951660,193.646820 
	C109.786285,189.266998 102.997665,187.421646 103.350075,180.008041 
	C105.361084,181.087494 106.975510,182.241882 108.685120,183.231873 
	C110.402977,184.226608 112.215630,185.057617 114.039093,186.306320 
	C114.858345,187.002167 115.955933,187.867569 116.340233,187.621063 
	C119.632698,185.508972 122.796028,183.195602 126.290771,181.078247 
	C127.723198,182.143494 128.862823,183.072937 130.262848,184.108337 
	C131.018951,184.477585 131.514618,184.740860 132.042572,185.335434 
	C132.454865,186.686554 132.834900,187.706375 133.214935,188.726181 
	C133.147247,189.540939 133.079575,190.355698 133.009613,191.579437 
	C127.108826,192.385406 124.844795,194.200745 123.995361,199.594574 
z"/>
<path fill="#6A421A" opacity="1.000000" stroke="none" 
	d="
M101.688309,221.262573 
	C101.947296,227.698395 101.946999,234.361221 101.928299,241.486816 
	C100.874710,237.687454 99.839523,233.425339 98.419510,229.102020 
	C97.763367,228.536804 97.492058,228.032806 97.110992,227.264709 
	C98.477158,225.163605 99.953094,223.326584 101.688309,221.262573 
z"/>
<path fill="#409D1A" opacity="1.000000" stroke="none" 
	d="
M120.022743,146.789795 
	C117.243782,145.570068 114.464813,144.350342 111.347107,143.014557 
	C111.002472,142.477524 110.996574,142.056549 110.987846,141.319931 
	C112.512138,139.730927 114.039253,138.457581 115.873260,137.032303 
	C118.309181,138.096176 120.438210,139.311966 122.562225,141.063568 
	C121.712379,143.329529 120.867561,145.059662 120.022743,146.789795 
z"/>
<path fill="#258B20" opacity="1.000000" stroke="none" 
	d="
M148.988464,182.094971 
	C149.426895,182.095947 149.865356,182.096939 150.630905,182.129578 
	C152.408493,183.438431 153.858963,184.715652 155.800842,186.309021 
	C157.517319,187.451385 158.742401,188.277588 159.814163,189.337387 
	C159.105698,190.046204 158.550537,190.521393 157.630295,190.956848 
	C153.843002,189.616150 150.420761,188.315186 147.031754,186.672974 
	C147.706131,184.919495 148.347290,183.507233 148.988464,182.094971 
z"/>
<path fill="#3DA119" opacity="1.000000" stroke="none" 
	d="
M157.995361,190.996582 
	C158.550537,190.521393 159.105698,190.046204 160.155853,189.316910 
	C161.106995,189.078552 161.563141,189.094269 162.019302,189.110001 
	C164.401443,189.744919 166.783569,190.379852 169.542862,191.059662 
	C167.506332,192.060577 165.092651,193.016617 162.219482,193.802216 
	C161.524612,193.743927 161.289230,193.856049 161.053848,193.968170 
	C160.877731,193.976532 160.701614,193.984894 160.151428,193.707489 
	C159.183350,192.613342 158.589355,191.804962 157.995361,190.996582 
z"/>
<path fill="#93D720" opacity="1.000000" stroke="none" 
	d="
M162.009399,188.721985 
	C161.563141,189.094269 161.106995,189.078552 160.309143,189.083298 
	C158.742401,188.277588 157.517319,187.451385 156.134735,186.349854 
	C156.831390,185.086700 157.685577,184.098892 158.539764,183.111099 
	C159.693008,184.852051 160.846252,186.593002 162.009399,188.721985 
z"/>
<path fill="#158118" opacity="1.000000" stroke="none" 
	d="
M157.630295,190.956848 
	C158.589355,191.804962 159.183350,192.613342 159.886963,193.709717 
	C159.258148,194.006683 158.519684,194.015640 157.413040,194.033325 
	C155.237793,193.731262 153.430740,193.420471 150.874268,193.033554 
	C145.992981,190.997879 141.861099,189.038345 138.132812,187.022903 
	C141.357117,186.982727 144.177826,186.998459 146.998535,187.014191 
	C150.420761,188.315186 153.843002,189.616150 157.630295,190.956848 
z"/>
<path fill="#6DC518" opacity="1.000000" stroke="none" 
	d="
M137.729202,187.078812 
	C141.861099,189.038345 145.992981,190.997879 150.481537,193.021362 
	C150.120178,193.417023 149.402115,193.748734 148.361145,194.098785 
	C143.343185,192.357101 138.648132,190.597092 133.584015,188.781631 
	C132.834900,187.706375 132.454865,186.686554 132.364166,185.351257 
	C133.453003,185.337143 134.252502,185.638519 135.310455,186.088623 
	C136.289001,186.517838 137.009109,186.798325 137.729202,187.078812 
z"/>
<path fill="#8FD525" opacity="1.000000" stroke="none" 
	d="
M149.760696,171.753998 
	C148.768097,173.449265 147.538071,174.928635 145.811905,176.663971 
	C143.570358,175.220764 141.824936,173.521561 140.055450,171.456360 
	C139.108826,168.232162 138.186279,165.373993 137.061432,161.889008 
	C138.414352,162.456177 139.129532,162.755997 140.013016,163.340271 
	C141.765427,164.764343 143.349533,165.903992 144.933640,167.043625 
	C146.463516,168.541779 147.993378,170.039932 149.760696,171.753998 
z"/>
<path fill="#44AA18" opacity="1.000000" stroke="none" 
	d="
M145.216797,166.851105 
	C143.349533,165.903992 141.765427,164.764343 140.332520,163.195618 
	C141.665314,161.146744 142.846909,159.526962 144.357513,157.953400 
	C145.127625,158.006821 145.568710,158.014008 146.009796,158.021210 
	C146.009796,158.021210 146.006119,157.992752 145.968002,158.276855 
	C146.074402,158.823135 146.218918,159.085327 146.363434,159.347504 
	C146.601486,158.893341 146.839539,158.439178 147.077591,157.985016 
	C150.109039,157.800659 151.220383,159.391861 150.995026,162.609344 
	C149.164078,164.218552 147.332016,165.438568 145.216797,166.851105 
z"/>
<path fill="#4EB015" opacity="1.000000" stroke="none" 
	d="
M120.294212,147.014786 
	C120.867561,145.059662 121.712379,143.329529 122.760345,141.329468 
	C125.221626,142.832977 127.479752,144.606400 129.582520,146.829041 
	C128.556122,148.663467 127.685074,150.048721 126.814026,151.433975 
	C124.731255,150.035904 122.648468,148.637848 120.294212,147.014786 
z"/>
<path fill="#99D636" opacity="1.000000" stroke="none" 
	d="
M141.616211,151.030090 
	C142.101242,151.601166 142.240112,152.166229 142.604355,152.928009 
	C142.900192,153.517075 142.970642,153.909454 142.976135,154.711334 
	C142.911194,155.120850 142.718811,155.351120 142.397598,155.236420 
	C139.389740,153.737671 136.703094,152.353622 133.903137,150.721680 
	C133.525040,150.001572 133.260254,149.529327 132.885651,148.822784 
	C132.496765,148.395798 132.217728,148.203110 131.963379,148.016541 
	C131.988068,148.022659 131.954865,148.064590 131.954865,148.064590 
	C132.198120,146.946793 132.441376,145.828979 132.811966,144.390533 
	C133.742447,144.381027 134.545593,144.692139 135.673462,145.002533 
	C137.755493,147.009232 139.512772,149.016647 141.616211,151.030090 
z"/>
<path fill="#50A617" opacity="1.000000" stroke="none" 
	d="
M132.995468,149.057098 
	C133.260254,149.529327 133.525040,150.001572 133.893768,151.078690 
	C133.310684,152.836746 132.623642,153.989929 131.936615,155.143112 
	C130.344406,154.090103 128.752197,153.037079 126.987000,151.709015 
	C127.685074,150.048721 128.556122,148.663467 129.750214,147.116669 
	C130.534378,147.247360 130.995514,147.539642 131.705750,147.948257 
	C131.954865,148.064590 131.988068,148.022659 132.074310,148.249847 
	C132.438858,148.670410 132.717163,148.863754 132.995468,149.057098 
z"/>
<path fill="#3FA22A" opacity="1.000000" stroke="none" 
	d="
M96.017807,140.418304 
	C95.269119,140.689194 94.526703,140.774689 93.420525,140.764404 
	C93.817482,140.421829 94.578201,140.175003 95.650879,139.897614 
	C95.962830,139.867035 96.024086,140.232910 96.017807,140.418304 
z"/>
<path fill="#258B20" opacity="1.000000" stroke="none" 
	d="
M114.004105,193.986938 
	C114.327263,194.091522 114.587753,194.281876 114.892654,194.778687 
	C114.096931,196.001236 113.341690,197.222656 112.255966,197.952332 
	C110.711723,198.990158 108.924629,199.666626 107.060638,200.833618 
	C106.165054,200.580902 105.450119,199.992035 104.489075,199.278992 
	C102.927216,197.009216 101.611465,194.863617 100.137207,192.034149 
	C99.250977,189.438049 98.556694,187.512192 97.786751,185.617081 
	C96.892418,183.415771 95.931740,181.241440 95.387321,178.928864 
	C96.849083,178.893219 97.923386,178.984085 98.999084,179.457382 
	C100.715584,183.333801 102.477791,186.805618 104.134727,190.326996 
	C106.620277,195.609314 108.083176,196.179642 114.004105,193.986938 
z"/>
<path fill="#3DA119" opacity="1.000000" stroke="none" 
	d="
M140.079529,171.822388 
	C141.824936,173.521561 143.570358,175.220764 145.650513,176.978561 
	C146.631821,178.143677 147.278412,179.250183 147.599701,180.835632 
	C143.200272,182.856339 139.126144,184.398102 135.052017,185.939880 
	C134.252502,185.638519 133.453003,185.337143 132.331894,185.019943 
	C131.514618,184.740860 131.018951,184.477585 130.264694,183.680054 
	C128.545288,176.513657 133.119400,174.637543 138.317810,172.974854 
	C139.117142,172.572144 139.598343,172.197266 140.079529,171.822388 
z"/>
<path fill="#2E901A" opacity="1.000000" stroke="none" 
	d="
M135.310455,186.088623 
	C139.126144,184.398102 143.200272,182.856339 147.629059,181.160873 
	C148.247726,181.214844 148.511749,181.422516 148.882111,181.862579 
	C148.347290,183.507233 147.706131,184.919495 147.031754,186.672974 
	C144.177826,186.998459 141.357117,186.982727 138.132812,187.022903 
	C137.009109,186.798325 136.289001,186.517838 135.310455,186.088623 
z"/>
<path fill="#158118" opacity="1.000000" stroke="none" 
	d="
M161.264572,193.959747 
	C161.289230,193.856049 161.524612,193.743927 161.828400,193.783691 
	C161.896790,193.935562 161.475296,193.951309 161.264572,193.959747 
z"/>
<path fill="#99D636" opacity="1.000000" stroke="none" 
	d="
M145.934662,157.743835 
	C145.568710,158.014008 145.127625,158.006821 144.322128,157.671036 
	C143.873962,156.973114 143.790207,156.603760 143.799576,156.157196 
	C143.892715,156.079971 144.074051,155.919739 144.074051,155.919739 
	C144.074051,155.919739 144.515579,155.962830 144.735565,155.987183 
	C145.256882,156.496506 145.558212,156.981491 145.934662,157.743835 
z"/>
<path fill="#99D636" opacity="1.000000" stroke="none" 
	d="
M146.802460,157.973755 
	C146.839539,158.439178 146.601486,158.893341 146.363434,159.347504 
	C146.218918,159.085327 146.074402,158.823135 145.953766,158.278656 
	C146.160889,157.985062 146.344116,157.973770 146.802460,157.973755 
z"/>
<path fill="#99D636" opacity="1.000000" stroke="none" 
	d="
M143.011139,155.008957 
	C143.419037,155.020279 143.668030,155.217804 143.966064,155.704681 
	C144.074051,155.919739 143.892715,156.079971 143.621185,156.027664 
	C143.117569,155.789307 142.907288,155.581238 142.718811,155.351120 
	C142.718811,155.351120 142.911194,155.120850 143.011139,155.008957 
z"/>
<path fill="#0A7D2B" opacity="1.000000" stroke="none" 
	d="
M78.037552,172.099213 
	C74.575783,170.174683 71.114014,168.250168 67.349167,166.172440 
	C72.437630,162.647186 77.829170,159.275131 83.659027,156.263901 
	C88.068771,159.385193 92.040199,162.145645 95.985489,165.080841 
	C95.959358,165.255615 95.984871,165.606171 95.614151,165.694397 
	C94.483543,165.779938 93.723663,165.777252 92.870865,165.634155 
	C92.527344,165.617233 92.276733,165.740707 91.662552,165.982483 
	C86.878502,168.100266 82.458023,170.099731 78.037552,172.099213 
z"/>
<path fill="#4DB21D" opacity="1.000000" stroke="none" 
	d="
M142.397598,155.236420 
	C142.907288,155.581238 143.117569,155.789307 143.528046,156.104889 
	C143.790207,156.603760 143.873962,156.973114 143.993103,157.624817 
	C142.846909,159.526962 141.665314,161.146744 140.164215,162.911163 
	C139.129532,162.755997 138.414352,162.456177 137.061432,161.889008 
	C138.186279,165.373993 139.108826,168.232162 140.055450,171.456360 
	C139.598343,172.197266 139.117142,172.572144 138.091827,172.705704 
	C135.343582,171.257874 133.139435,170.051361 130.935272,168.844864 
	C131.089447,168.567215 131.208557,168.261841 131.402939,168.015991 
	C136.249191,161.886993 136.250580,161.888092 131.952057,155.493408 
	C132.623642,153.989929 133.310684,152.836746 134.007080,151.326569 
	C136.703094,152.353622 139.389740,153.737671 142.397598,155.236420 
z"/>
<path fill="#2C9724" opacity="1.000000" stroke="none" 
	d="
M90.983154,154.156509 
	C94.344772,154.081512 97.706398,154.006516 101.320198,154.277344 
	C101.199371,155.118469 100.826355,155.613754 100.453339,156.109024 
	C101.650208,156.399597 102.847069,156.690155 104.302017,157.171585 
	C105.759033,158.049454 107.053963,158.615158 108.125458,159.463196 
	C108.929993,160.099945 109.447380,161.099487 109.697319,161.969025 
	C105.007011,163.241699 107.613060,165.988525 107.560890,168.190399 
	C104.241928,167.339645 101.303169,166.536835 98.257401,165.313568 
	C96.949821,160.520859 95.736893,156.156845 90.983154,154.156509 
z"/>
<path fill="#44AA18" opacity="1.000000" stroke="none" 
	d="
M130.611008,168.886078 
	C133.139435,170.051361 135.343582,171.257874 137.773697,172.733536 
	C133.119400,174.637543 128.545288,176.513657 130.004272,183.574066 
	C128.862823,183.072937 127.723198,182.143494 126.253021,180.742035 
	C125.274590,178.849319 124.626701,177.428619 123.986374,175.586441 
	C123.979973,173.491638 123.966003,171.818314 124.165222,169.961945 
	C124.248970,168.856491 124.119545,167.934097 124.368927,167.004028 
	C125.505737,166.997620 126.263725,166.998901 127.021713,167.000183 
	C128.110062,167.642548 129.198395,168.284912 130.611008,168.886078 
z"/>
<path fill="#5AB71A" opacity="1.000000" stroke="none" 
	d="
M126.872238,166.698349 
	C126.263725,166.998901 125.505737,166.997620 124.079697,166.834229 
	C119.632019,164.453934 115.852394,162.235748 111.816650,160.141312 
	C111.071220,160.822556 110.581909,161.380035 110.092598,161.937531 
	C109.447380,161.099487 108.929993,160.099945 108.125458,159.463196 
	C107.053963,158.615158 105.759033,158.049454 104.297165,156.929703 
	C104.034233,156.496948 104.043846,156.012833 104.368484,156.006561 
	C105.440834,155.691162 106.188530,155.382050 106.936234,155.072937 
	C114.703979,156.799118 120.971390,161.146942 126.872238,166.698349 
z"/>
<path fill="#0D832E" opacity="1.000000" stroke="none" 
	d="
M90.615463,154.116974 
	C95.736893,156.156845 96.949821,160.520859 98.072929,165.286835 
	C97.995468,165.680527 97.696014,165.459076 97.284935,165.290314 
	C96.586449,165.049744 96.299034,164.977905 96.011627,164.906082 
	C92.040199,162.145645 88.068771,159.385193 84.032806,156.260056 
	C86.061440,155.289383 88.154602,154.683411 90.615463,154.116974 
z"/>
<path fill="#33991D" opacity="1.000000" stroke="none" 
	d="
M104.043846,156.012833 
	C104.043846,156.012833 104.034233,156.496948 104.039085,156.738831 
	C102.847069,156.690155 101.650208,156.399597 100.453339,156.109024 
	C100.826355,155.613754 101.199371,155.118469 101.767380,154.374741 
	C102.548615,154.119644 103.134850,154.112991 103.919853,154.644577 
	C104.093704,155.459488 104.068779,155.736160 104.043846,156.012833 
z"/>
<path fill="#2C9724" opacity="1.000000" stroke="none" 
	d="
M104.368484,156.006561 
	C104.068779,155.736160 104.093704,155.459488 104.186539,154.771637 
	C104.935295,154.504227 105.616135,154.648010 106.616600,154.932373 
	C106.188530,155.382050 105.440834,155.691162 104.368484,156.006561 
z"/>
<path fill="#188821" opacity="1.000000" stroke="none" 
	d="
M94.999855,179.055389 
	C95.931740,181.241440 96.892418,183.415771 97.786751,185.617081 
	C98.556694,187.512192 99.250977,189.438049 99.962837,191.746368 
	C98.215843,191.757523 96.484718,191.372589 94.373169,190.917053 
	C92.067711,187.711426 90.142677,184.576447 88.275345,180.810364 
	C90.555305,179.804642 92.777580,179.430008 94.999855,179.055389 
z"/>
<path fill="#FBFCFA" opacity="1.000000" stroke="none" 
	d="
M95.387321,178.928864 
	C92.777580,179.430008 90.555305,179.804642 88.137367,180.490845 
	C84.904137,182.574646 81.866570,184.346863 78.460159,186.040756 
	C76.271797,184.046570 74.452293,182.130722 72.341995,180.057037 
	C73.953621,177.498901 75.856049,175.098587 77.898010,172.398743 
	C82.458023,170.099731 86.878502,168.100266 91.905327,166.049377 
	C92.662369,165.923492 92.813072,165.849030 92.963783,165.774551 
	C93.723663,165.777252 94.483543,165.779938 95.903488,165.799103 
	C96.941040,165.696747 97.318527,165.577911 97.696014,165.459076 
	C97.696014,165.459076 97.995468,165.680527 98.179947,165.707275 
	C101.303169,166.536835 104.241928,167.339645 107.743988,168.418488 
	C108.854660,168.891434 109.402016,169.088364 110.135529,169.534332 
	C111.889259,170.784302 113.456825,171.785248 115.228531,173.051605 
	C117.051262,174.851456 118.669876,176.385910 120.308029,178.296021 
	C118.213959,181.101242 116.100349,183.530823 113.986740,185.960388 
	C112.215630,185.057617 110.402977,184.226608 108.685120,183.231873 
	C106.975510,182.241882 105.361084,181.087494 103.070244,179.790771 
	C101.289604,179.409210 100.143646,179.242081 98.997681,179.074951 
	C97.923386,178.984085 96.849083,178.893219 95.387321,178.928864 
z"/>
<path fill="#68431E" opacity="1.000000" stroke="none" 
	d="
M91.974655,235.406876 
	C94.774040,235.817795 94.678383,237.170578 92.347710,238.937744 
	C91.993553,237.934341 91.986336,236.870087 91.974655,235.406876 
z"/>
<path fill="#46AB24" opacity="1.000000" stroke="none" 
	d="
M99.066353,77.442566 
	C96.937004,79.222450 94.779007,80.612511 92.237991,82.016678 
	C91.561089,80.632385 91.267204,79.233978 90.968445,77.475601 
	C91.602478,73.525177 91.823021,69.572762 97.506226,70.015045 
	C98.278297,72.366165 98.658005,74.709450 99.066353,77.442566 
z"/>
<path fill="#2E901A" opacity="1.000000" stroke="none" 
	d="
M98.999084,179.457367 
	C100.143646,179.242081 101.289604,179.409210 102.715393,179.793610 
	C102.997665,187.421646 109.786285,189.266998 113.951660,193.646820 
	C108.083176,196.179642 106.620277,195.609314 104.134727,190.326996 
	C102.477791,186.805618 100.715584,183.333801 98.999084,179.457367 
z"/>
<path fill="#3FA22A" opacity="1.000000" stroke="none" 
	d="
M114.039093,186.306320 
	C116.100349,183.530823 118.213959,181.101242 120.539673,178.077332 
	C121.827454,176.991302 122.903137,176.499619 123.978821,176.007935 
	C124.626701,177.428619 125.274590,178.849319 125.960220,180.606201 
	C122.796028,183.195602 119.632698,185.508972 116.340233,187.621063 
	C115.955933,187.867569 114.858345,187.002167 114.039093,186.306320 
z"/>
<path fill="#AEE443" opacity="1.000000" stroke="none" 
	d="
M132.885651,148.822784 
	C132.717163,148.863754 132.438858,148.670410 132.049622,148.243744 
	C132.217728,148.203110 132.496765,148.395798 132.885651,148.822784 
z"/>
<path fill="#2C9724" opacity="1.000000" stroke="none" 
	d="
M92.870865,165.634155 
	C92.813072,165.849030 92.662369,165.923492 92.268906,165.931091 
	C92.276733,165.740707 92.527344,165.617233 92.870865,165.634155 
z"/>
<path fill="#2C9724" opacity="1.000000" stroke="none" 
	d="
M97.284935,165.290329 
	C97.318527,165.577911 96.941040,165.696747 96.274216,165.710876 
	C95.984871,165.606171 95.959358,165.255615 95.985489,165.080841 
	C96.299034,164.977905 96.586449,165.049744 97.284935,165.290329 
z"/>
<path fill="#33991D" opacity="1.000000" stroke="none" 
	d="
M109.949364,169.285294 
	C109.402016,169.088364 108.854660,168.891434 108.124207,168.466431 
	C107.613060,165.988525 105.007011,163.241699 109.697319,161.969025 
	C110.581909,161.380035 111.071220,160.822556 111.801788,160.495926 
	C112.516556,161.764893 112.990059,162.802994 113.057983,163.893570 
	C109.018944,164.342468 108.911827,166.524139 109.949364,169.285294 
z"/>
<path fill="#99D636" opacity="1.000000" stroke="none" 
	d="
M113.463562,163.841095 
	C112.990059,162.802994 112.516556,161.764893 112.057907,160.372177 
	C115.852394,162.235748 119.632019,164.453934 123.700882,166.841919 
	C124.119545,167.934097 124.248970,168.856491 123.817581,169.914627 
	C122.159866,169.708771 121.062965,169.367157 119.818436,168.729889 
	C117.601715,166.903183 115.532639,165.372131 113.463562,163.841095 
z"/>
<path fill="#2E901A" opacity="1.000000" stroke="none" 
	d="
M119.966072,169.025543 
	C121.062965,169.367157 122.159866,169.708771 123.604401,170.097687 
	C123.966003,171.818314 123.979973,173.491638 123.986374,175.586441 
	C122.903137,176.499619 121.827454,176.991302 120.520126,177.701691 
	C118.669876,176.385910 117.051262,174.851456 115.435898,172.822388 
	C116.948120,171.227020 118.457092,170.126282 119.966072,169.025543 
z"/>
<path fill="#43A320" opacity="1.000000" stroke="none" 
	d="
M119.818436,168.729889 
	C118.457092,170.126282 116.948120,171.227020 115.231766,172.556976 
	C113.456825,171.785248 111.889259,170.784302 110.135529,169.534332 
	C108.911827,166.524139 109.018944,164.342468 113.057983,163.893570 
	C115.532639,165.372131 117.601715,166.903183 119.818436,168.729889 
z"/>
</svg>